<mxfile host="65bd71144e">
    <diagram id="7rbMcumh-cOKgHumeQxC" name="Page-1">
        <mxGraphModel dx="1829" dy="806" grid="0" gridSize="10" guides="1" tooltips="1" connect="1" arrows="1" fold="1" page="1" pageScale="1" pageWidth="850" pageHeight="1100" math="0" shadow="0">
            <root>
                <mxCell id="0"/>
                <mxCell id="1" parent="0"/>
                <mxCell id="91" value="Call Hierarchy" style="swimlane;fontSize=12;fontColor=#DADADA;" parent="1" vertex="1">
                    <mxGeometry x="-832" y="28" width="726" height="453" as="geometry"/>
                </mxCell>
                <mxCell id="100" value="01_Common_Functions\inc" style="swimlane;whiteSpace=wrap;html=1;fontSize=12;fontColor=#DADADA;" parent="91" vertex="1">
                    <mxGeometry x="172.25" y="40" width="200" height="90" as="geometry">
                        <mxRectangle x="310" y="50" width="230" height="30" as="alternateBounds"/>
                    </mxGeometry>
                </mxCell>
                <mxCell id="136" value="" style="rounded=1;whiteSpace=wrap;html=1;fontSize=12;fontColor=#DADADA;" vertex="1" parent="100">
                    <mxGeometry x="51.13" y="37" width="105" height="30" as="geometry"/>
                </mxCell>
                <mxCell id="135" value="" style="rounded=1;whiteSpace=wrap;html=1;fontSize=12;fontColor=#DADADA;" vertex="1" parent="100">
                    <mxGeometry x="47.13" y="41" width="105" height="30" as="geometry"/>
                </mxCell>
                <mxCell id="101" value="commonXXX.h" style="rounded=1;whiteSpace=wrap;html=1;fontSize=12;fontColor=#DADADA;" parent="100" vertex="1">
                    <mxGeometry x="43.88" y="45" width="105" height="30" as="geometry"/>
                </mxCell>
                <mxCell id="125" style="edgeStyle=elbowEdgeStyle;html=1;exitX=1;exitY=0.5;exitDx=0;exitDy=0;entryX=0;entryY=0.5;entryDx=0;entryDy=0;" parent="91" source="92" target="94" edge="1">
                    <mxGeometry relative="1" as="geometry"/>
                </mxCell>
                <mxCell id="127" style="edgeStyle=elbowEdgeStyle;html=1;exitX=1;exitY=0.25;exitDx=0;exitDy=0;entryX=0;entryY=0.5;entryDx=0;entryDy=0;" parent="91" source="92" target="101" edge="1">
                    <mxGeometry relative="1" as="geometry">
                        <Array as="points">
                            <mxPoint x="134.25" y="171"/>
                        </Array>
                    </mxGeometry>
                </mxCell>
                <mxCell id="129" style="edgeStyle=elbowEdgeStyle;html=1;exitX=1;exitY=0.5;exitDx=0;exitDy=0;" parent="91" source="92" target="97" edge="1">
                    <mxGeometry relative="1" as="geometry"/>
                </mxCell>
                <mxCell id="131" style="edgeStyle=elbowEdgeStyle;html=1;exitX=1;exitY=0.75;exitDx=0;exitDy=0;" parent="91" source="92" target="105" edge="1">
                    <mxGeometry relative="1" as="geometry">
                        <Array as="points">
                            <mxPoint x="135.25" y="332"/>
                        </Array>
                    </mxGeometry>
                </mxCell>
                <mxCell id="92" value="main.c" style="rounded=1;whiteSpace=wrap;html=1;fontSize=12;fontColor=#DADADA;" parent="91" vertex="1">
                    <mxGeometry x="30.25" y="231" width="70" height="30" as="geometry"/>
                </mxCell>
                <mxCell id="93" value="\cfg" style="swimlane;whiteSpace=wrap;html=1;fontSize=12;fontColor=#DADADA;" parent="91" vertex="1">
                    <mxGeometry x="183.25" y="167" width="150" height="140" as="geometry">
                        <mxRectangle x="160" y="50" width="60" height="30" as="alternateBounds"/>
                    </mxGeometry>
                </mxCell>
                <mxCell id="94" value="compileCfg.h" style="rounded=1;whiteSpace=wrap;html=1;fontSize=12;fontColor=#DADADA;" parent="93" vertex="1">
                    <mxGeometry x="25" y="40" width="100" height="30" as="geometry"/>
                </mxCell>
                <mxCell id="97" value="&lt;span style=&quot;background-color: rgb(30, 30, 30);&quot;&gt;methodCfg.h&lt;/span&gt;" style="rounded=1;whiteSpace=wrap;html=1;fontSize=12;fontColor=#DADADA;" parent="93" vertex="1">
                    <mxGeometry x="25" y="88" width="100" height="30" as="geometry"/>
                </mxCell>
                <mxCell id="104" value="\inc" style="swimlane;whiteSpace=wrap;html=1;fontSize=12;fontColor=#DADADA;" parent="91" vertex="1">
                    <mxGeometry x="183.25" y="340" width="150" height="90" as="geometry">
                        <mxRectangle x="160" y="50" width="60" height="30" as="alternateBounds"/>
                    </mxGeometry>
                </mxCell>
                <mxCell id="105" value="&lt;span style=&quot;background-color: rgb(30, 30, 30);&quot;&gt;solutionName.h&lt;/span&gt;" style="rounded=1;whiteSpace=wrap;html=1;fontSize=12;fontColor=#DADADA;" parent="104" vertex="1">
                    <mxGeometry x="15" y="40" width="115" height="30" as="geometry"/>
                </mxCell>
                <mxCell id="108" value="\src" style="swimlane;whiteSpace=wrap;html=1;fontSize=12;fontColor=#DADADA;" parent="91" vertex="1">
                    <mxGeometry x="435.75" y="274" width="260" height="90" as="geometry">
                        <mxRectangle x="160" y="50" width="60" height="30" as="alternateBounds"/>
                    </mxGeometry>
                </mxCell>
                <mxCell id="139" value="" style="rounded=1;whiteSpace=wrap;html=1;fontSize=12;fontColor=#DADADA;" vertex="1" parent="108">
                    <mxGeometry x="20.63" y="38" width="225" height="30" as="geometry"/>
                </mxCell>
                <mxCell id="138" value="" style="rounded=1;whiteSpace=wrap;html=1;fontSize=12;fontColor=#DADADA;" vertex="1" parent="108">
                    <mxGeometry x="16.88" y="42" width="225" height="30" as="geometry"/>
                </mxCell>
                <mxCell id="109" value="&lt;span style=&quot;background-color: rgb(30, 30, 30);&quot;&gt;&lt;font style=&quot;font-size: 12px;&quot;&gt;solutionName_methodNameXX.c&lt;/font&gt;&lt;/span&gt;" style="rounded=1;whiteSpace=wrap;html=1;fontSize=12;fontColor=#DADADA;" parent="108" vertex="1">
                    <mxGeometry x="14.379999999999999" y="46" width="225" height="30" as="geometry"/>
                </mxCell>
                <mxCell id="111" value="01_Common_Functions\src" style="swimlane;whiteSpace=wrap;html=1;fontSize=12;fontColor=#DADADA;" parent="91" vertex="1">
                    <mxGeometry x="435.75" y="110" width="200" height="90" as="geometry">
                        <mxRectangle x="540" y="60" width="230" height="30" as="alternateBounds"/>
                    </mxGeometry>
                </mxCell>
                <mxCell id="141" value="" style="rounded=1;whiteSpace=wrap;html=1;fontSize=12;fontColor=#DADADA;" vertex="1" parent="111">
                    <mxGeometry x="50.88" y="37" width="105" height="30" as="geometry"/>
                </mxCell>
                <mxCell id="140" value="" style="rounded=1;whiteSpace=wrap;html=1;fontSize=12;fontColor=#DADADA;" vertex="1" parent="111">
                    <mxGeometry x="46.88" y="41" width="105" height="30" as="geometry"/>
                </mxCell>
                <mxCell id="112" value="commonXXX.c" style="rounded=1;whiteSpace=wrap;html=1;fontSize=12;fontColor=#DADADA;" parent="111" vertex="1">
                    <mxGeometry x="44.13" y="45" width="105" height="30" as="geometry"/>
                </mxCell>
                <mxCell id="126" style="edgeStyle=elbowEdgeStyle;html=1;exitX=1;exitY=0.5;exitDx=0;exitDy=0;entryX=0;entryY=0.5;entryDx=0;entryDy=0;" parent="91" source="94" target="112" edge="1">
                    <mxGeometry relative="1" as="geometry">
                        <Array as="points">
                            <mxPoint x="373" y="193"/>
                        </Array>
                    </mxGeometry>
                </mxCell>
                <mxCell id="128" style="edgeStyle=elbowEdgeStyle;html=1;exitX=1;exitY=0.5;exitDx=0;exitDy=0;entryX=0;entryY=0.25;entryDx=0;entryDy=0;" parent="91" source="101" target="112" edge="1">
                    <mxGeometry relative="1" as="geometry"/>
                </mxCell>
                <mxCell id="130" style="edgeStyle=elbowEdgeStyle;html=1;exitX=1;exitY=0.75;exitDx=0;exitDy=0;entryX=0;entryY=0.25;entryDx=0;entryDy=0;" parent="91" source="97" target="109" edge="1">
                    <mxGeometry relative="1" as="geometry"/>
                </mxCell>
                <mxCell id="133" style="edgeStyle=elbowEdgeStyle;html=1;exitX=1;exitY=0.5;exitDx=0;exitDy=0;entryX=0;entryY=0.75;entryDx=0;entryDy=0;" parent="91" source="105" target="109" edge="1">
                    <mxGeometry relative="1" as="geometry"/>
                </mxCell>
                <mxCell id="134" style="edgeStyle=elbowEdgeStyle;html=1;exitX=1;exitY=0.25;exitDx=0;exitDy=0;entryX=0;entryY=0.75;entryDx=0;entryDy=0;" parent="91" source="97" target="112" edge="1">
                    <mxGeometry relative="1" as="geometry"/>
                </mxCell>
            </root>
        </mxGraphModel>
    </diagram>
</mxfile>